<?xml version="1.0" encoding="iso-8859-1"?>
<!-- Uploaded to: SVG Repo, www.svgrepo.com, Generator: SVG Repo Mixer Tools -->
<svg height="800px" width="800px" version="1.1" id="Layer_1" xmlns="http://www.w3.org/2000/svg" xmlns:xlink="http://www.w3.org/1999/xlink" 
	 viewBox="0 0 512 512" xml:space="preserve">
<g transform="translate(1 1)">
	<path style="fill:#E2E3E5;" d="M173.933,69.827c102.4-58.88,232.107-23.893,291.84,78.507
		c58.88,102.4,23.893,232.107-78.507,290.987s-232.107,23.893-291.84-77.653C36.547,259.267,71.533,129.56,173.933,69.827"/>
	<path style="fill:#CCCCCC;" d="M148.333,69.827c102.4-58.88,232.107-23.893,291.84,78.507
		c58.88,102.4,23.893,232.107-78.507,290.987s-232.107,23.893-291.84-77.653C11.8,259.267,45.933,129.56,148.333,69.827"/>
	<path style="fill:#E2E3E5;" d="M442.733,255c0,117.76-89.6,213.333-200.533,213.333S41.667,372.76,41.667,255
		S131.267,41.667,242.2,41.667S442.733,137.24,442.733,255"/>
	<path style="fill:#FFFFFF;" d="M70.68,361.667c40.107,70.827,116.053,109.227,192,106.667
		C154.307,464.92,67.267,371.053,67.267,255S154.307,45.08,262.68,41.667c-38.4-1.707-77.653,7.68-114.347,28.16
		C46.787,129.56,11.8,259.267,70.68,361.667"/>
	<path style="fill:#E0E0E0;" d="M340.333,255c0,46.933-38.4,85.333-85.333,85.333s-85.333-38.4-85.333-85.333
		s38.4-85.333,85.333-85.333S340.333,208.067,340.333,255"/>
	<path style="fill:#F0F0F0;" d="M314.733,255c0,46.933-32.427,85.333-72.533,85.333s-72.533-38.4-72.533-85.333
		s32.427-85.333,72.533-85.333S314.733,208.067,314.733,255"/>
	<g>
		<path style="fill:#B6B6B6;" d="M255,476.867c-122.027,0-221.867-99.84-221.867-221.867S132.973,33.133,255,33.133
			S476.867,132.973,476.867,255S377.027,476.867,255,476.867z M255,50.2C142.36,50.2,50.2,142.36,50.2,255S142.36,459.8,255,459.8
			S459.8,367.64,459.8,255S367.64,50.2,255,50.2z"/>
		<path style="fill:#B6B6B6;" d="M199.533,57.88c-3.413,0-6.827-2.56-8.533-5.973l-8.533-33.28
			c-0.853-4.267,1.707-9.387,5.973-10.24s9.387,1.707,10.24,5.973l8.533,33.28c0.853,4.267-1.707,9.387-5.973,10.24
			C201.24,57.027,200.387,57.88,199.533,57.88z"/>
		<path style="fill:#B6B6B6;" d="M319,502.467c-3.413,0-6.827-2.56-8.533-5.973l-8.533-33.28c-0.853-4.267,1.707-9.387,5.973-10.24
			c4.267-0.853,9.387,1.707,10.24,5.973l8.533,33.28c0.853,4.267-1.707,9.387-5.973,10.24
			C320.707,502.467,319.853,502.467,319,502.467z"/>
		<path style="fill:#B6B6B6;" d="M502.467,263.533h-34.133c-5.12,0-8.533-3.413-8.533-8.533s3.413-8.533,8.533-8.533h34.133
			c5.12,0,8.533,3.413,8.533,8.533S507.587,263.533,502.467,263.533z"/>
		<path style="fill:#B6B6B6;" d="M41.667,263.533H7.533C2.413,263.533-1,260.12-1,255s3.413-8.533,8.533-8.533h34.133
			c5.12,0,8.533,3.413,8.533,8.533S46.787,263.533,41.667,263.533z"/>
		<path style="fill:#B6B6B6;" d="M429.933,438.467c-2.56,0-4.267-0.853-5.973-2.56l-23.893-23.893
			c-3.413-3.413-3.413-8.533,0-11.947c3.413-3.413,8.533-3.413,11.947,0l23.893,23.893c3.413,3.413,3.413,8.533,0,11.947
			C434.2,437.613,432.493,438.467,429.933,438.467z"/>
		<path style="fill:#B6B6B6;" d="M103.96,112.493c-2.56,0-4.267-0.853-5.973-2.56L74.093,86.04c-3.413-3.413-3.413-8.533,0-11.947
			c3.413-3.413,8.533-3.413,11.947,0l23.893,23.893c3.413,3.413,3.413,8.533,0,11.947C108.227,111.64,106.52,112.493,103.96,112.493
			z"/>
		<path style="fill:#B6B6B6;" d="M406.04,112.493c-2.56,0-4.267-0.853-5.973-2.56c-3.413-3.413-3.413-8.533,0-11.947l23.893-23.893
			c3.413-3.413,8.533-3.413,11.947,0c3.413,3.413,3.413,8.533,0,11.947l-23.893,23.893
			C410.307,111.64,407.747,112.493,406.04,112.493z"/>
		<path style="fill:#B6B6B6;" d="M80.067,438.467c-2.56,0-4.267-0.853-5.973-2.56c-3.413-3.413-3.413-8.533,0-11.947l23.893-23.893
			c3.413-3.413,8.533-3.413,11.947,0c3.413,3.413,3.413,8.533,0,11.947L86.04,435.907C84.333,437.613,82.627,438.467,80.067,438.467
			z"/>
		<path style="fill:#B6B6B6;" d="M148.333,78.36c-2.56,0-5.973-1.707-7.68-4.267l-17.067-29.867
			c-1.707-3.413-0.853-8.533,3.413-11.093s9.387-0.853,11.947,3.413l17.067,29.867c2.56,4.267,0.853,9.387-3.413,11.947
			C150.893,78.36,150.04,78.36,148.333,78.36z"/>
		<path style="fill:#B6B6B6;" d="M378.733,477.72c-2.56,0-5.973-1.707-7.68-4.267l-17.067-29.867
			c-2.56-4.267-0.853-9.387,3.413-11.947c4.267-2.56,9.387-0.853,11.947,3.413l17.067,29.867c2.56,4.267,0.853,9.387-3.413,11.947
			C381.293,477.72,380.44,477.72,378.733,477.72z"/>
		<path style="fill:#B6B6B6;" d="M255,511c-5.12,0-8.533-3.413-8.533-8.533v-34.133c0-5.12,3.413-8.533,8.533-8.533
			s8.533,3.413,8.533,8.533v34.133C263.533,507.587,260.12,511,255,511z"/>
		<path style="fill:#B6B6B6;" d="M255,50.2c-5.12,0-8.533-3.413-8.533-8.533V7.533C246.467,2.413,249.88-1,255-1
			s8.533,3.413,8.533,8.533v34.133C263.533,46.787,260.12,50.2,255,50.2z"/>
		<path style="fill:#B6B6B6;" d="M69.827,156.867c-1.707,0-2.56,0-4.267-0.853l-29.867-17.067c-3.413-2.56-5.12-7.68-2.56-11.947
			s7.68-5.12,11.947-3.413l29.867,17.067c4.267,2.56,5.12,7.68,3.413,11.947C75.8,155.16,73.24,156.867,69.827,156.867z"/>
		<path style="fill:#B6B6B6;" d="M469.187,387.267c-1.707,0-2.56,0-4.267-0.853l-29.867-17.067c-4.267-2.56-5.12-7.68-3.413-11.947
			c2.56-4.267,7.68-5.12,11.947-3.413l29.867,17.067c4.267,2.56,5.12,7.68,3.413,11.947
			C475.16,385.56,472.6,387.267,469.187,387.267z"/>
		<path style="fill:#B6B6B6;" d="M49.347,208.067c-0.853,0-1.707,0-2.56,0l-33.28-8.533c-4.267-0.853-7.68-5.973-5.973-10.24
			c0.853-4.267,5.973-7.68,10.24-5.973l33.28,8.533c4.267,0.853,7.68,5.973,5.973,10.24
			C56.173,205.507,52.76,208.067,49.347,208.067z"/>
		<path style="fill:#B6B6B6;" d="M493.933,327.533c-0.853,0-1.707,0-2.56,0L458.093,319c-4.267-0.853-6.827-5.973-5.973-10.24
			c0.853-4.267,5.973-7.68,10.24-5.973l33.28,8.533c4.267,0.853,6.827,5.973,5.973,10.24
			C501.613,324.973,498.2,327.533,493.933,327.533z"/>
		<path style="fill:#B6B6B6;" d="M16.067,327.533c-3.413,0-6.827-2.56-8.533-5.973c-0.853-4.267,1.707-9.387,5.973-10.24
			l33.28-8.533c4.267-0.853,9.387,1.707,10.24,5.973c0.853,4.267-1.707,9.387-5.973,10.24l-33.28,8.533
			C17.773,327.533,16.92,327.533,16.067,327.533z"/>
		<path style="fill:#B6B6B6;" d="M460.653,208.067c-3.413,0-6.827-2.56-8.533-5.973c-0.853-4.267,1.707-9.387,5.973-10.24
			l33.28-8.533c4.267-0.853,9.387,1.707,10.24,5.973c0.853,4.267-1.707,9.387-5.973,10.24l-33.28,8.533
			C462.36,208.067,461.507,208.067,460.653,208.067z"/>
		<path style="fill:#B6B6B6;" d="M40.813,387.267c-2.56,0-5.973-1.707-7.68-4.267c-2.56-4.267-0.853-9.387,3.413-11.947
			l29.867-17.067c4.267-2.56,9.387-0.853,11.947,3.413c2.56,4.267,0.853,9.387-3.413,11.947L45.08,386.413
			C43.373,387.267,42.52,387.267,40.813,387.267z"/>
		<path style="fill:#B6B6B6;" d="M440.173,156.867c-2.56,0-5.973-1.707-7.68-4.267c-2.56-4.267-0.853-9.387,3.413-11.947
			l29.867-17.067c4.267-2.56,9.387-0.853,11.947,3.413c2.56,4.267,0.853,9.387-3.413,11.947l-29.867,17.067
			C442.733,156.867,441.027,156.867,440.173,156.867z"/>
		<path style="fill:#B6B6B6;" d="M361.667,78.36c-1.707,0-2.56,0-4.267-0.853c-4.267-2.56-5.12-7.68-3.413-11.947l17.067-29.867
			c2.56-3.413,7.68-5.12,11.947-2.56s5.12,7.68,3.413,11.947l-17.067,29.867C367.64,77.507,364.227,78.36,361.667,78.36z"/>
		<path style="fill:#B6B6B6;" d="M131.267,477.72c-1.707,0-2.56,0-4.267-0.853c-4.267-2.56-5.12-7.68-3.413-11.947l17.067-29.867
			c2.56-4.267,7.68-5.12,11.947-3.413c4.267,2.56,5.12,7.68,3.413,11.947l-17.067,29.867
			C137.24,476.013,133.827,477.72,131.267,477.72z"/>
		<path style="fill:#B6B6B6;" d="M310.467,57.88c-0.853,0-1.707,0-2.56,0c-4.267-0.853-6.827-5.973-5.973-10.24l8.533-33.28
			c0.853-4.267,5.973-6.827,10.24-5.973s6.827,5.973,5.973,10.24l-8.533,33.28C317.293,55.32,313.88,57.88,310.467,57.88z"/>
		<path style="fill:#B6B6B6;" d="M191,502.467c-0.853,0-1.707,0-2.56,0c-4.267-0.853-7.68-5.973-5.973-10.24l8.533-33.28
			c0.853-4.267,5.973-7.68,10.24-5.973c4.267,0.853,7.68,5.973,5.973,10.24l-8.533,33.28
			C197.827,499.907,194.413,502.467,191,502.467z"/>
		<path style="fill:#B6B6B6;" d="M255,348.867c-52.053,0-93.867-41.813-93.867-93.867s41.813-93.867,93.867-93.867
			s93.867,41.813,93.867,93.867S307.053,348.867,255,348.867z M255,178.2c-42.667,0-76.8,34.133-76.8,76.8s34.133,76.8,76.8,76.8
			s76.8-34.133,76.8-76.8S297.667,178.2,255,178.2z"/>
		<path style="fill:#B6B6B6;" d="M255,178.2c-5.12,0-8.533-3.413-8.533-8.533v-128c0-5.12,3.413-8.533,8.533-8.533
			s8.533,3.413,8.533,8.533v128C263.533,174.787,260.12,178.2,255,178.2z"/>
		<path style="fill:#B6B6B6;" d="M173.933,237.08c-0.853,0-1.707,0-2.56,0L49.347,196.973c-4.267-1.707-6.827-5.973-5.12-11.093
			c1.707-4.267,5.973-6.827,11.093-5.12l121.173,40.107c4.267,1.707,6.827,5.973,5.12,11.093
			C180.76,234.52,177.347,237.08,173.933,237.08z"/>
		<path style="fill:#B6B6B6;" d="M129.56,435.907c-1.707,0-3.413-0.853-5.12-1.707c-3.413-2.56-4.267-7.68-1.707-11.947L197.827,319
			c2.56-3.413,7.68-4.267,11.947-1.707c3.413,2.56,4.267,7.68,1.707,11.947l-75.093,103.253
			C134.68,435.053,132.12,435.907,129.56,435.907z"/>
		<path style="fill:#B6B6B6;" d="M380.44,435.907c-2.56,0-5.12-0.853-6.827-3.413L298.52,329.24
			c-2.56-3.413-1.707-9.387,1.707-11.947c3.413-2.56,9.387-1.707,11.947,1.707l75.093,103.253c2.56,3.413,1.707,9.387-1.707,11.947
			C383.853,435.907,382.147,435.907,380.44,435.907z"/>
		<path style="fill:#B6B6B6;" d="M336.067,237.08c-3.413,0-6.827-2.56-8.533-5.973c-1.707-4.267,0.853-9.387,5.12-11.093
			L454.68,180.76c4.267-1.707,9.387,0.853,11.093,5.12c1.707,4.267-0.853,9.387-5.12,11.093l-122.027,39.253
			C337.773,237.08,336.92,237.08,336.067,237.08z"/>
		<path style="fill:#B6B6B6;" d="M263.533,255c0,5.12-3.413,8.533-8.533,8.533s-8.533-3.413-8.533-8.533s3.413-8.533,8.533-8.533
			S263.533,249.88,263.533,255"/>
	</g>
</g>
</svg>